<mxfile host="app.diagrams.net" modified="2021-09-06T07:49:46.125Z" agent="5.0 (Windows NT 10.0; WOW64) AppleWebKit/537.36 (KHTML, like Gecko) Chrome/91.0.4472.114 Safari/537.36" etag="VyI3cZ0a0OpaqdNog3t_" version="15.0.5" type="github">
  <diagram id="RVEWPz781C2vAiPu0wIw" name="Page-1">
    <mxGraphModel dx="898" dy="490" grid="0" gridSize="10" guides="1" tooltips="1" connect="1" arrows="1" fold="1" page="1" pageScale="1" pageWidth="150" pageHeight="200" math="0" shadow="0">
      <root>
        <mxCell id="0" />
        <mxCell id="1" parent="0" />
        <mxCell id="bzbJT1zY2OZr3YnOxuI1-1" style="edgeStyle=orthogonalEdgeStyle;rounded=0;orthogonalLoop=1;jettySize=auto;html=1;entryX=0.5;entryY=0;entryDx=0;entryDy=0;strokeColor=#FF6666;endArrow=classicThin;endFill=1;" edge="1" parent="1" source="bzbJT1zY2OZr3YnOxuI1-2" target="bzbJT1zY2OZr3YnOxuI1-6">
          <mxGeometry relative="1" as="geometry" />
        </mxCell>
        <mxCell id="bzbJT1zY2OZr3YnOxuI1-2" value="&lt;font style=&quot;font-size: 14px&quot; color=&quot;#97d077&quot;&gt;c2, c4&lt;/font&gt;" style="rounded=1;whiteSpace=wrap;html=1;strokeWidth=1;sketch=0;glass=0;shadow=1;strokeColor=#808080;" vertex="1" parent="1">
          <mxGeometry x="36.5" y="46" width="73" height="20" as="geometry" />
        </mxCell>
        <mxCell id="bzbJT1zY2OZr3YnOxuI1-3" style="edgeStyle=orthogonalEdgeStyle;rounded=0;orthogonalLoop=1;jettySize=auto;html=1;strokeColor=#97D077;endArrow=classicThin;endFill=1;" edge="1" parent="1" source="bzbJT1zY2OZr3YnOxuI1-4" target="bzbJT1zY2OZr3YnOxuI1-2">
          <mxGeometry relative="1" as="geometry" />
        </mxCell>
        <mxCell id="bzbJT1zY2OZr3YnOxuI1-4" value="&lt;font style=&quot;font-size: 14px&quot;&gt;c1, c2, c3, c4&lt;/font&gt;" style="rounded=1;whiteSpace=wrap;html=1;strokeWidth=1;perimeterSpacing=0;shadow=1;sketch=0;glass=0;strokeColor=#808080;" vertex="1" parent="1">
          <mxGeometry x="12" width="122" height="22" as="geometry" />
        </mxCell>
        <mxCell id="bzbJT1zY2OZr3YnOxuI1-5" style="edgeStyle=orthogonalEdgeStyle;rounded=0;orthogonalLoop=1;jettySize=auto;html=1;strokeColor=#B5739D;endArrow=classicThin;endFill=1;" edge="1" parent="1" source="bzbJT1zY2OZr3YnOxuI1-6" target="bzbJT1zY2OZr3YnOxuI1-7">
          <mxGeometry relative="1" as="geometry" />
        </mxCell>
        <mxCell id="bzbJT1zY2OZr3YnOxuI1-6" value="&lt;font style=&quot;font-size: 12px&quot;&gt;(&lt;font color=&quot;#97d077&quot;&gt;c2&lt;/font&gt;, &lt;font color=&quot;#ff6666&quot;&gt;c3&lt;/font&gt;), (&lt;font color=&quot;#97d077&quot;&gt;c2&lt;/font&gt;, &lt;font color=&quot;#ff6666&quot;&gt;c4&lt;/font&gt;), (&lt;font color=&quot;#97d077&quot;&gt;c4&lt;/font&gt;, &lt;font color=&quot;#ff6666&quot;&gt;c4&lt;/font&gt;)&lt;/font&gt;" style="rounded=1;whiteSpace=wrap;html=1;strokeWidth=1;sketch=0;shadow=1;strokeColor=#808080;" vertex="1" parent="1">
          <mxGeometry y="90.25" width="146" height="26" as="geometry" />
        </mxCell>
        <mxCell id="bzbJT1zY2OZr3YnOxuI1-7" value="&lt;font style=&quot;font-size: 12px&quot;&gt;(&lt;font color=&quot;#97d077&quot;&gt;c2&lt;/font&gt;, &lt;font color=&quot;#ff6666&quot;&gt;c3&lt;/font&gt;), (&lt;font color=&quot;#97d077&quot;&gt;c4&lt;/font&gt;, &lt;font color=&quot;#ff6666&quot;&gt;c4&lt;/font&gt;)&lt;/font&gt;" style="rounded=1;whiteSpace=wrap;html=1;strokeWidth=1;sketch=0;shadow=1;strokeColor=#808080;" vertex="1" parent="1">
          <mxGeometry x="16" y="140" width="114" height="26" as="geometry" />
        </mxCell>
      </root>
    </mxGraphModel>
  </diagram>
</mxfile>
